<?xml version="1.0" encoding="UTF-8"?>
<svg id="Layer_1" xmlns="http://www.w3.org/2000/svg" version="1.1" viewBox="0 0 1392.12 296.05">
  <!-- Generator: Adobe Illustrator 29.8.2, SVG Export Plug-In . SVG Version: 2.1.1 Build 3)  -->
  <defs>
    <style>
      .st0 {
        fill: #863ecc;
      }
    </style>
  </defs>
  <path class="st0" d="M166.28,199.93c-7.41,0-14.81-1.79-21.13-5.38-16.18-9.18-26.22-30.78-26.22-56.36s10.05-47.18,26.22-56.36h0c12.64-7.17,29.62-7.17,42.26,0,16.18,9.18,26.22,30.78,26.22,56.36s-10.05,47.18-26.22,56.36c-6.32,3.59-13.73,5.38-21.13,5.38ZM166.28,99.42c-3.47,0-6.94.8-9.78,2.41h0c-8.72,4.95-14.58,19.56-14.58,36.36s5.86,31.41,14.58,36.36c5.67,3.21,13.89,3.21,19.55,0,8.72-4.95,14.58-19.56,14.58-36.36s-5.86-31.41-14.58-36.36c-2.83-1.61-6.3-2.41-9.78-2.41ZM150.82,91.83h0,0Z"/>
  <path class="st0" d="M409.29,256.82c-22.44,0-43.42-40.34-79.49-113.55-12.16-24.68-24.73-50.2-35.96-69.5-11.86-20.39-18.66-27.52-21.78-29.99-1.96,4.42-5.4,17.34-4.75,53.12.64,34.64,5,83.99,12.97,146.68.8,6.3-3.66,12.06-9.96,12.86-6.29.8-12.06-3.66-12.86-9.96-8.79-69.08-13.24-122.33-13.24-158.27,0-44.24,6.29-63.95,21.72-68.01,24.42-6.43,45.76,34.29,84.48,112.9,12.16,24.68,24.73,50.2,35.95,69.5,11.86,20.39,18.66,27.51,21.78,29.98,1.96-4.42,5.4-17.34,4.75-53.12-.64-34.64-5-83.99-12.97-146.68-.8-6.3,3.66-12.06,9.96-12.86,6.29-.8,12.06,3.66,12.86,9.96,8.79,69.08,13.24,122.33,13.24,158.27,0,44.24-6.29,63.95-21.72,68.01-1.67.44-3.34.66-4.99.66Z"/>
  <path class="st0" d="M1285.82,271.86c-14.47,0-28.94-3.5-41.29-10.51-17.04-9.67-30.94-26.61-40.21-49-8.26-19.95-12.63-43.41-12.63-67.85s4.37-47.9,12.63-67.85c9.27-22.39,23.18-39.33,40.21-49h0c24.7-14.02,57.89-14.02,82.59,0,17.04,9.67,30.94,26.61,40.21,49,8.26,19.95,12.63,43.41,12.63,67.85s-4.37,47.9-12.63,67.85c-9.27,22.39-23.18,39.33-40.21,49-12.35,7.01-26.82,10.51-41.29,10.51ZM1255.88,47.64h0c-25.03,14.21-41.2,52.22-41.2,96.85s16.17,82.64,41.2,96.85c17.63,10.01,42.25,10.01,59.88,0,25.03-14.21,41.2-52.22,41.2-96.85s-16.17-82.65-41.2-96.85c-17.63-10.01-42.25-10-59.88,0Z"/>
  <path class="st0" d="M782.26,262.84h-.09c-40.76-.3-79-9.04-107.67-24.62-28.38-15.42-45.22-36.41-46.2-57.58-.54-11.61,3.8-24.23,12.14-36.3-8.32-11.97-12.66-24.47-12.14-35.99.95-21.09,17.79-42.03,46.19-57.47,28.68-15.58,66.91-24.37,107.66-24.75.04,0,.07,0,.11,0,6.3,0,11.44,5.08,11.5,11.39.06,6.35-5.04,11.55-11.39,11.61-37.06.34-71.47,8.14-96.89,21.96-20.84,11.32-33.62,25.64-34.19,38.29-.23,5.09,1.57,10.97,5.02,17.04,1.74-1.58,3.56-3.14,5.44-4.66,20.95-16.94,54.32-32.14,85.16-24.02,22.83,6.02,47.01,24.87,46.87,47.96-.16,25.99-28.54,41.09-43.53,45.44-13.62,3.96-29.47,3.44-45.84-1.49-14.46-4.35-28.76-11.9-41.37-21.82-2.33-1.83-4.55-3.71-6.67-5.62-3.49,6.18-5.31,12.18-5.07,17.35.59,12.75,13.38,27.12,34.21,38.44,25.41,13.81,59.8,21.56,96.85,21.83,6.35.05,11.46,5.23,11.42,11.58-.05,6.32-5.19,11.42-11.5,11.42ZM670.85,144.3c2.01,1.87,4.14,3.7,6.39,5.47,21.79,17.14,47.92,24.72,66.57,19.3,5.03-1.46,12.52-4.76,18.49-9.63,3.84-3.14,8.42-8.09,8.46-13.87.06-10.14-15.64-21.86-29.73-25.57-18.56-4.89-44.01,2.83-64.83,19.66-1.87,1.51-3.65,3.06-5.34,4.64Z"/>
  <path class="st0" d="M988.54,263.12c-22.43,0-43.42-40.34-79.48-113.54-12.16-24.68-24.73-50.2-35.96-69.5-11.86-20.39-18.66-27.52-21.78-29.99-1.96,4.42-5.4,17.34-4.75,53.12.64,34.64,5,83.99,12.97,146.68.8,6.3-3.66,12.06-9.96,12.86-6.3.8-12.06-3.66-12.86-9.96-8.79-69.08-13.24-122.33-13.24-158.27,0-44.24,6.29-63.95,21.72-68.01,24.42-6.42,45.76,34.29,84.48,112.9,12.16,24.68,24.73,50.2,35.95,69.5,11.86,20.39,18.66,27.51,21.78,29.98,1.96-4.42,5.4-17.34,4.75-53.12-.64-34.64-5-83.99-12.97-146.68-.8-6.3,3.66-12.06,9.96-12.86,6.29-.8,12.06,3.66,12.86,9.96,8.79,69.08,13.24,122.33,13.24,158.27,0,44.24-6.29,63.95-21.72,68.01-1.67.44-3.34.66-4.99.66Z"/>
  <path class="st0" d="M1112.08,267.87c-6.2,0-11.31-4.93-11.49-11.17-1.06-36.74.07-74.22,3.36-111.39,1.14-12.83,2.4-24.24,3.52-34.31,3.21-28.89,4.74-44.99.7-54.31-14.91.33-27.38.46-37.32.39-10.93-.08-18.88-.4-24.31-.98-4.45-.47-16.26-1.73-17.15-12.48-.49-5.88,2.85-10.62,9.93-14.06,13.06-6.36,55.79-17.02,79.68,3.86,17.06-.46,38.04-1.18,63.84-2.24,6.35-.27,11.7,4.67,11.97,11.01.26,6.35-4.67,11.7-11.01,11.97-19.12.79-36.39,1.42-51.77,1.9,3.1,14.37,1.04,32.88-1.69,57.49-1.11,9.95-2.36,21.22-3.47,33.79-3.21,36.28-4.31,72.85-3.28,108.7.18,6.35-4.81,11.64-11.16,11.83-.11,0-.23,0-.34,0Z"/>
  <path class="st0" d="M543.5,263.86c-6.2,0-11.31-4.93-11.49-11.17-1.06-36.74.07-74.21,3.36-111.39,1.14-12.84,2.4-24.25,3.52-34.31,3.21-28.89,4.74-44.99.7-54.31-14.91.33-27.38.46-37.32.39-10.93-.08-18.88-.4-24.31-.98-4.45-.47-16.25-1.73-17.15-12.48-.49-5.89,2.85-10.62,9.93-14.07,13.06-6.36,55.79-17.02,79.68,3.86,17.06-.46,38.04-1.18,63.84-2.24,6.34-.28,11.7,4.67,11.97,11.01.26,6.35-4.67,11.7-11.01,11.97-19.12.79-36.39,1.42-51.77,1.9,3.1,14.37,1.04,32.88-1.69,57.49-1.11,9.95-2.36,21.22-3.47,33.8-3.21,36.29-4.31,72.86-3.28,108.7.18,6.35-4.81,11.64-11.16,11.83-.11,0-.23,0-.34,0Z"/>
  <path class="st0" d="M130.11,262.18c-11.77,0-24.94-1.64-38.71-6.23C34.31,236.88,14.93,183.49,12.91,177.46c-4.92-14.67-11.46-44.38,0-78.55,2.02-6.03,21.4-59.42,78.5-78.48,33.52-11.19,63.51-4.83,78.4-.04,6.05,1.94,9.37,8.42,7.43,14.47-1.95,6.05-8.42,9.37-14.47,7.43-12.21-3.93-36.77-9.16-64.07-.04-47.32,15.8-63.32,62.02-63.97,63.98-9.68,28.84-3.22,54.31,0,63.92.66,1.96,16.65,48.18,63.97,63.98,27.3,9.12,51.86,3.89,64.07-.04,6.05-1.95,12.52,1.38,14.47,7.43s-1.38,12.52-7.43,14.47c-8.78,2.82-22.8,6.19-39.69,6.19Z"/>
</svg>