<?xml version="1.0" encoding="UTF-8"?>
<svg id="Layer_1" xmlns="http://www.w3.org/2000/svg" version="1.1" viewBox="0 0 1080 1080">
  <!-- Generator: Adobe Illustrator 29.8.2, SVG Export Plug-In . SVG Version: 2.1.1 Build 3)  -->
  <defs>
    <style>
      .st0 {
        fill: #863ecc;
      }

      .st1 {
        fill: #fff;
      }
    </style>
  </defs>
  <rect class="st0" x="-1.58" y="-1.58" width="1083.16" height="1083.16"/>
  <g>
    <path class="st1" d="M540,517.51c-65.22,0-120.27-25.62-143.68-66.85-18.29-32.22-18.29-75.51,0-107.73,23.41-41.23,78.46-66.85,143.68-66.85s120.27,25.62,143.68,66.85c18.29,32.22,18.29,75.51,0,107.73-23.41,41.23-78.46,66.85-143.68,66.85ZM447.31,421.72c12.62,22.23,49.87,37.16,92.69,37.16s80.07-14.93,92.69-37.16c8.2-14.44,8.2-35.4,0-49.85-12.62-22.23-49.87-37.16-92.69-37.16s-80.07,14.93-92.69,37.16c-8.2,14.44-8.2,35.4,0,49.85h0Z"/>
    <path class="st1" d="M539.41,804.02c-30.03,0-63.82-4.27-99.53-16.25-15.36-5.15-151.48-54.55-200.08-200.1-28.53-85.46-12.31-161.9-.1-199.85,4.96-15.41,21.48-23.88,36.89-18.93,15.41,4.96,23.89,21.47,18.93,36.89-10.01,31.13-23.34,93.73-.1,163.33,16.65,49.86,47.91,91.92,92.91,125.02,35.26,25.93,66.73,36.9,70.2,38.06,73.54,24.67,138.45,8.22,162.94,0,3.47-1.17,34.94-12.13,70.2-38.06,45-33.1,76.26-75.16,92.91-125.02,23.24-69.6,9.91-132.21-.1-163.33-4.96-15.41,3.52-31.93,18.93-36.89,15.41-4.96,31.93,3.52,36.89,18.93,12.21,37.96,28.43,114.4-.1,199.85-48.6,145.55-184.72,194.95-200.08,200.1-22.06,7.4-57.48,16.25-100.71,16.25Z"/>
  </g>
</svg>